<svg width="215" height="36" viewBox="0 0 215 36" fill="none" xmlns="http://www.w3.org/2000/svg">
<g clip-path="url(#clip0)">
<path d="M40.0438 15.5212H45.1241C47.011 15.5212 48.7528 14.6462 48.7528 12.6045C48.7528 11.4378 47.7367 11.0003 45.995 11.0003H41.0599L40.0438 15.5212ZM38.0117 24.7087H43.2371C45.2692 24.8545 47.011 23.3962 47.3013 21.5003V21.0628C47.3013 19.7503 46.1401 19.167 44.6886 19.167H39.3181L38.0117 24.7087ZM37.4311 7.35449H47.5916C51.8009 7.35449 52.817 9.54199 52.817 11.4378C52.9621 13.7712 51.5106 15.9587 49.3334 16.9795C50.7849 17.417 51.6558 18.8753 51.6558 20.4795C51.6558 22.2295 50.93 28.2087 41.9308 28.2087H33.0767L37.4311 7.35449Z" fill="#B6B6B6"/>
<path d="M59.7842 24.7087H63.9935C68.348 24.7087 70.5253 18.8753 70.5253 14.9378C70.5253 11.4378 68.348 11.0003 66.8965 11.0003H62.6872L59.7842 24.7087ZM59.2036 7.35449H68.348C73.5734 7.35449 75.0249 10.8545 75.0249 14.2087C75.0249 19.0212 71.9768 28.2087 63.8484 28.2087H54.8491L59.2036 7.35449Z" fill="#B6B6B6"/>
<path d="M95.3456 21.0623C92.1523 21.2082 90.4105 22.8123 90.4105 24.854C90.4105 26.3123 91.7168 27.0415 93.1683 27.0415C95.9262 27.0415 98.9743 25.729 99.5549 22.5207L99.9904 20.1873C98.5389 20.7707 96.9422 21.0623 95.3456 21.0623ZM90.5557 17.5623C91.5717 13.9165 94.4747 12.604 97.8131 12.604C100.426 12.604 102.458 13.479 102.458 16.104C102.458 16.5415 102.458 16.979 102.313 17.4165L100.571 25.729C100.571 26.0207 100.426 26.3123 100.426 26.4582C100.426 26.8957 100.571 27.1873 101.006 27.1873C101.442 27.1873 101.732 27.0415 102.168 26.8957L101.877 28.354C101.442 28.4998 100.861 28.6457 100.426 28.6457C99.2646 28.6457 98.684 28.354 98.684 27.0415V26.3123C97.0874 27.9165 94.9101 28.7915 92.5878 28.7915C90.2654 28.7915 88.3784 27.6248 88.3784 25.4373C88.3784 22.8123 90.1202 20.479 94.765 19.7498L98.2486 19.3123C100.281 19.0207 100.716 17.9998 100.716 16.5415C100.716 15.0832 99.8452 14.2082 97.5228 14.2082C95.2004 13.9165 93.0232 15.3748 92.4426 17.7082L90.5557 17.5623Z" fill="#B6B6B6"/>
<path d="M108.844 15.8128C109.861 13.6253 112.038 12.4587 114.505 12.6045L114.07 14.5003C110.151 14.5003 108.554 17.417 107.828 20.7712L106.377 28.2087H104.49L107.683 12.8962H109.425L108.844 15.8128Z" fill="#B6B6B6"/>
<path d="M125.972 17.8543C126.117 15.9585 124.666 14.3543 122.779 14.2085H122.344C117.844 14.2085 115.667 19.4585 115.667 22.6668C115.667 25.0002 116.683 27.0418 119.586 27.0418C122.053 27.0418 124.376 25.2918 125.101 22.9585H126.988C125.972 26.3127 122.779 28.646 119.295 28.646C115.376 28.646 113.78 26.3127 113.78 23.1043C113.78 18.0002 117.263 12.4585 122.634 12.4585C126.117 12.4585 127.714 14.0627 127.714 17.7085L125.972 17.8543Z" fill="#B6B6B6"/>
<path d="M133.81 15.0833C135.262 13.625 137.149 12.6042 139.181 12.6042C141.939 12.6042 143.535 13.9167 143.535 16.5417C143.535 17.125 143.535 17.7083 143.39 18.2917L141.358 28.2083H139.616L141.648 18.2917C141.793 17.8542 141.793 17.2708 141.793 16.8333C141.793 15.0833 140.777 14.2083 138.6 14.2083C135.407 14.2083 133.52 16.9792 132.794 19.8958L131.052 28.2083H129.311L133.81 7.0625H135.552L133.81 15.0833Z" fill="#B6B6B6"/>
<path d="M150.067 9.6875L150.648 7.0625H152.389L151.809 9.6875H150.067ZM147.89 28.2083H146.148L149.341 12.8958H151.083L147.89 28.2083Z" fill="#B6B6B6"/>
<path d="M158.195 28.3542C157.47 28.5 156.744 28.6458 156.163 28.6458C154.712 28.6458 153.986 28.2083 153.986 26.75C153.986 26.3125 153.986 26.0208 154.131 25.5833L156.454 14.5H154.276L154.567 13.0417H156.744L157.615 8.8125H159.357L158.486 13.0417H161.244L160.953 14.5H158.195L156.018 25C155.873 25.4375 155.873 25.875 155.873 26.3125C155.873 26.8958 156.163 27.1875 157.179 27.1875C157.615 27.1875 158.195 27.0417 158.631 27.0417L158.195 28.3542Z" fill="#B6B6B6"/>
<path d="M174.017 19.604C174.162 19.1665 174.162 18.5832 174.162 18.1457C174.307 16.2498 173.001 14.4998 170.969 14.2082H170.243C167.195 14.2082 165.018 16.6873 164.001 19.604H174.017ZM163.856 21.0623C163.711 21.6457 163.711 22.229 163.711 22.8123C163.711 25.2915 165.018 27.0415 167.63 27.0415C169.953 27.0415 171.985 25.729 173.001 23.5415H174.888C173.581 26.604 170.678 28.6457 167.34 28.6457C163.421 28.6457 161.824 26.4582 161.824 23.2498C161.824 17.854 165.598 12.604 170.678 12.604C174.017 12.604 175.904 14.4998 175.904 18.1457C175.904 19.1665 175.759 20.0415 175.613 21.0623H163.856Z" fill="#B6B6B6"/>
<path d="M190.419 17.8543C190.564 15.9585 189.112 14.3543 187.225 14.2085H186.79C182.29 14.2085 180.113 19.4585 180.113 22.6668C180.113 25.0002 181.129 27.0418 184.032 27.0418C186.5 27.0418 188.822 25.2918 189.548 22.9585H191.435C190.419 26.3127 187.225 28.646 183.742 28.646C179.823 28.646 178.226 26.3127 178.226 23.1043C178.226 18.0002 181.71 12.4585 187.08 12.4585C190.564 12.4585 192.16 14.0627 192.16 17.7085L190.419 17.8543Z" fill="#B6B6B6"/>
<path d="M198.837 28.3542C198.112 28.5 197.386 28.6458 196.805 28.6458C195.354 28.6458 194.628 28.2083 194.628 26.75C194.628 26.3125 194.628 26.0208 194.773 25.5833L197.095 14.5H194.918L195.209 13.0417H197.386L198.257 8.8125H199.998L199.128 13.0417H201.885L201.595 14.5H198.837L196.66 25C196.515 25.4375 196.515 25.875 196.515 26.3125C196.515 26.8958 196.805 27.1875 197.821 27.1875C198.257 27.1875 198.837 27.0417 199.273 27.0417L198.837 28.3542Z" fill="#B6B6B6"/>
<path d="M212.917 17.4165V16.8332C212.917 15.0832 211.61 14.2082 209.578 14.2082C207.546 14.2082 205.514 15.3748 205.514 17.2707C205.514 18.729 207.256 19.1665 209.143 19.604C211.32 20.1873 213.788 20.9165 213.788 23.2498C213.788 26.7498 210.449 28.6457 206.675 28.6457C203.482 28.6457 202.031 26.8957 202.031 24.4165V23.5415H203.772C203.772 26.1665 204.934 27.1873 207.546 27.1873C210.159 27.1873 211.901 25.729 211.901 23.8332C211.901 22.5207 210.739 21.7915 207.982 21.354C204.788 20.7707 203.627 19.604 203.627 17.9998C203.627 14.9373 206.24 12.604 209.869 12.604C212.917 12.604 214.658 13.7707 214.658 16.6873V17.4165H212.917Z" fill="#B6B6B6"/>
<path d="M19.7229 20.3337H25.2386L24.0774 12.167L19.7229 20.3337ZM27.7061 7.35449L30.6091 28.2087H25.9643L25.5288 23.8337H17.8359L15.5135 28.2087H11.0139L22.6259 7.35449H27.7061Z" fill="#B6B6B6"/>
</g>
<defs>
<clipPath id="clip0">
<rect width="214" height="35" fill="white" transform="translate(0.803711 0.5)"/>
</clipPath>
</defs>
</svg>
