<svg width="112" height="32" viewBox="0 0 112 32" fill="none" xmlns="http://www.w3.org/2000/svg">
<path d="M23.0874 31.9302C27.8111 31.9302 31.6404 28.0743 31.6404 23.3179C31.6404 18.5614 27.8111 14.7056 23.0874 14.7056C18.3637 14.7056 14.5344 18.5614 14.5344 23.3179C14.5344 28.0743 18.3637 31.9302 23.0874 31.9302Z" fill="#B6B6B6"/>
<path d="M7.02494 27.3149C9.21697 27.3149 10.994 25.5256 10.994 23.3183C10.994 21.1111 9.21697 19.3218 7.02494 19.3218C4.8329 19.3218 3.05591 21.1111 3.05591 23.3183C3.05591 25.5256 4.8329 27.3149 7.02494 27.3149Z" fill="#B6B6B6"/>
<path d="M23.0873 12.6787C26.1233 12.6787 28.5844 10.2005 28.5844 7.14354C28.5844 4.08656 26.1233 1.6084 23.0873 1.6084C20.0514 1.6084 17.5903 4.08656 17.5903 7.14354C17.5903 10.2005 20.0514 12.6787 23.0873 12.6787Z" fill="#B6B6B6"/>
<path d="M7.02499 14.2173C10.9048 14.2173 14.05 11.0503 14.05 7.14355C14.05 3.23684 10.9048 0.0698242 7.02499 0.0698242C3.1452 0.0698242 0 3.23684 0 7.14355C0 11.0503 3.1452 14.2173 7.02499 14.2173Z" fill="#B6B6B6"/>
<path d="M53.8333 27.2761H58.2682L50.0506 4.76025H46.8269L38.6094 27.2761H43.0629L44.6281 22.9793H52.2681L53.8333 27.2761L45.858 19.5832L48.4481 12.5095L51.0382 19.5832H45.858L53.8333 27.2761Z" fill="#B6B6B6"/>
<path d="M69.2622 11.8906L65.1814 23.0735L61.1005 11.8906H56.9265L62.5353 27.2765H67.8087L73.4176 11.8906H69.2622Z" fill="#B6B6B6"/>
<path d="M75.1877 11.8901H79.3617V27.276H75.1877V11.8901Z" fill="#B6B6B6"/>
<path d="M77.2748 10.1455C78.7568 10.1455 79.9581 8.93582 79.9581 7.4436C79.9581 5.95138 78.7568 4.7417 77.2748 4.7417C75.7929 4.7417 74.5916 5.95138 74.5916 7.4436C74.5916 8.93582 75.7929 10.1455 77.2748 10.1455Z" fill="#B6B6B6"/>
<path d="M94.064 15.2865V11.8904H89.0701V7.6499H84.8961V11.8904H81.5979V15.2865H84.8961V21.9099C84.8961 25.3249 86.5918 27.5952 90.9149 27.5952C92.5919 27.5952 94.0454 26.976 94.0454 26.976L93.5423 23.6549C93.5423 23.6549 92.7224 23.8988 91.7161 23.8988C90.4863 23.8988 89.0515 23.3547 89.0515 21.6473V15.2865H94.064Z" fill="#B6B6B6"/>
<path d="M103.623 23.749C101.294 23.749 99.4122 21.8914 99.4122 19.6023C99.4122 17.3132 101.294 15.4556 103.623 15.4556C105.953 15.4556 107.835 17.3132 107.835 19.6023C107.835 21.8914 105.953 23.749 103.623 23.749ZM103.623 11.4966C99.114 11.4966 95.4431 15.0991 95.4431 19.546C95.4431 23.9929 99.114 27.5954 103.623 27.5954C108.133 27.5954 111.804 23.9929 111.804 19.546C111.804 15.0991 108.133 11.4966 103.623 11.4966Z" fill="#B6B6B6"/>
</svg>
