<svg width="30" height="30" viewBox="0 0 30 30" fill="none" xmlns="http://www.w3.org/2000/svg">
<path d="M9.83955 4.92467C9.7798 4.92467 9.74993 4.95401 9.72005 4.98334C3.89437 6.30328 1.0861 13.2843 3.53587 18.4174C6.37402 24.3718 13.574 27.0997 19.8776 25.5451C26.4203 23.9319 29.617 17.4788 27.0477 11.4071C24.2992 4.83668 16.2627 2.93009 9.83955 4.92467ZM25.9423 18.9161C25.0162 21.5266 22.4469 23.2279 19.8776 24.0199C14.5598 25.6918 8.34579 23.4332 5.38814 18.7987C2.54999 14.3403 4.70101 7.56456 10.1981 6.39128C10.2877 6.36195 10.3474 6.33261 10.4072 6.30328C15.9042 4.66068 22.3872 6.00996 25.3149 11.2604C26.6295 13.5776 26.8386 16.3935 25.9423 18.9161Z" fill="#0F1319"/>
<path d="M19.2799 9.50061C18.3239 11.9058 17.2185 14.2524 15.9936 16.511C15.3961 17.5963 14.7687 18.6522 14.0816 19.7082C14.0517 19.7375 11.4227 16.951 11.2136 16.687C10.646 15.9243 9.36132 16.6576 9.92895 17.4203C10.8252 18.6522 11.9306 20.0308 13.275 20.8521C14.4102 21.5268 15.0376 20.9695 15.6351 20.0015C17.6965 16.8043 19.3695 13.4018 20.7438 9.88193C21.0724 9.00196 19.6384 8.62065 19.2799 9.50061Z" fill="#0F1319"/>
</svg>
