<svg width="307" height="215" viewBox="0 0 307 215" fill="none" xmlns="http://www.w3.org/2000/svg">
<path d="M302.205 131.209C306.987 91.616 264.858 57.3758 225.221 57.5356C184.382 56.3485 154.421 89.3878 152.941 126.787C151.239 169.777 184.084 196.221 224.897 197.407C265.757 197.094 301.087 169.693 302.205 131.209Z" fill="white"/>
<path d="M24.1451 135.317C6.93799 90.5893 45.962 38.3129 92.1913 26.8504C139.427 13.4648 184.046 43.1555 196.762 86.2957C211.379 135.886 180.881 176.35 133.676 189.727C85.9756 201.371 36.7585 179.827 24.1451 135.317Z" fill="white"/>
<path d="M188.432 65.0352C132.449 -16.9078 22.1617 36.0137 19.5132 113.572" stroke="#0F1319" stroke-width="1.5" stroke-linecap="round"/>
<path d="M155.342 108.57C179.535 31.7171 283.605 51.9872 301.528 114.031" stroke="#0F1319" stroke-width="1.5" stroke-linecap="round"/>
</svg>
