<svg width="514" height="263" viewBox="0 0 514 263" fill="none" xmlns="http://www.w3.org/2000/svg">
<path d="M112.987 156.207C94.6721 119.613 123.525 71.9628 161.87 58.4061C200.911 43.132 241.282 64.6846 255.65 100.3C272.165 141.241 249.583 178.148 210.567 193.412C170.988 207.245 127.38 192.996 112.987 156.207Z" fill="white"/>
<path d="M138.883 178.647C135.004 144.56 92.933 124.289 59.7938 132.311C25.3793 139.445 6.88105 173.058 13.0849 204.651C20.2163 240.968 52.9666 256.561 87.3588 249.432C121.492 241.038 145.605 211.076 138.883 178.647Z" fill="white"/>
<path d="M398.446 71.8258C393.82 31.1667 343.637 6.98735 304.108 16.5559C263.058 25.0656 240.993 65.1592 248.393 102.844C256.899 146.163 295.964 164.764 336.988 156.259C377.702 146.247 406.465 110.508 398.446 71.8258Z" fill="white"/>
<path d="M246.166 82.8509C191.824 17.8268 103.103 71.9724 107.252 138.108" stroke="#0F1319" stroke-width="1.5" stroke-linecap="round"/>
<path d="M11.2201 187.889C16.1725 118.757 107.301 115.01 134.648 163.367" stroke="#0F1319" stroke-width="1.5" stroke-linecap="round"/>
<path d="M246.165 82.8478C252.072 0.386593 360.772 -4.08348 393.392 53.5971" stroke="#0F1319" stroke-width="1.5" stroke-linecap="round"/>
<path d="M504.734 94.2198C510.513 53.7085 468.051 17.6534 427.387 16.9424C385.517 14.823 354.053 48.055 351.709 86.3877C349.014 130.452 382.124 158.304 423.967 160.422C465.89 161.003 502.737 133.674 504.734 94.2198Z" fill="white"/>
<path d="M356.334 66.3111C382.849 -11.994 489.162 11.0974 506.178 75.1406" stroke="#0F1319" stroke-width="1.5" stroke-linecap="round"/>
</svg>
