<svg width="225" height="182" viewBox="0 0 225 182" fill="none" xmlns="http://www.w3.org/2000/svg">
<path d="M182.085 37.9229C207.683 57.7075 203.474 101.546 180.81 124.354C158.239 148.625 122.09 147.12 99.6398 126.678C73.8334 103.18 77.2598 69.1448 99.8161 44.8897C123.265 21.4614 159.215 16.654 182.085 37.9229Z" fill="white"/>
<path d="M28.1827 143.364C42.5303 166.146 79.1799 166.155 99.8808 149.2C121.786 132.439 123.421 102.374 108.278 82.1469C90.871 58.896 62.4046 59.0204 40.5139 75.7711C19.2369 93.3272 12.3881 122.723 28.1827 143.364Z" fill="white"/>
<path d="M112.376 135.857C173.387 163.536 218.013 94.5372 192.374 48.8509" stroke="black" stroke-width="1.5" stroke-linecap="round"/>
<path d="M115.301 93.3683C135.337 143.936 72.1772 177.613 36.3769 152.731C30.5925 148.091 19.1591 134.004 19.7001 114.773" stroke="black" stroke-width="1.5" stroke-linecap="round"/>
</svg>
