<svg width="413" height="327" viewBox="0 0 413 327" fill="none" xmlns="http://www.w3.org/2000/svg">
<path d="M162.403 71.3589C179.964 31.9483 230.112 16.0018 274.413 35.7412C318.714 55.4806 339.008 102.843 322.831 142.842C304.432 188.332 255.093 198.186 210.821 178.459C167.242 157.169 144.532 111.466 162.403 71.3589Z" fill="white"/>
<path d="M188.278 136.575C175.673 180.276 116.195 197.474 74.6478 179.661C31.2375 162.727 14.487 114.699 29.5813 74.7709C46.9324 28.8733 93.1918 15.729 136.574 32.652C179.338 51.1702 204.235 95.6689 188.278 136.575Z" fill="white"/>
<path d="M161.715 67.8697C128.024 152.621 240.018 218.887 298.772 174.238" stroke="#0F1319" stroke-linecap="round"/>
<path d="M285.588 167.448C303.148 128.038 353.296 112.091 397.597 131.831C441.898 151.57 462.192 198.933 446.015 238.931C427.617 284.421 378.278 294.275 334.005 274.549C290.426 253.258 267.717 207.555 285.588 167.448Z" fill="white"/>
<path d="M285.99 164.449C252.3 249.2 364.293 315.466 423.047 270.817" stroke="#0F1319" stroke-linecap="round"/>
<path d="M24.3499 95.3704C18.8172 189.045 132.885 212.851 179.323 155.683" stroke="#0F1319" stroke-width="0.932121" stroke-linecap="round"/>
</svg>
