<svg width="242" height="166" viewBox="0 0 242 166" fill="none" xmlns="http://www.w3.org/2000/svg">
<path d="M99.8943 60.7507C102.889 27.199 135.891 2.72912 173.606 6.09576C211.322 9.46241 238.297 39.3067 236.473 72.9424C234.397 111.197 200.451 130.962 162.761 127.597C125.186 122.902 96.8463 94.8953 99.8943 60.7507Z" fill="white"/>
<path d="M135.509 102.365C137.26 137.832 97.6838 165.587 62.4903 162.947C26.143 161.427 1.61586 130.194 2.65856 96.8841C3.85716 58.5942 34.6961 37.1783 71.0199 38.6974C107.291 41.5511 136.942 68.1149 135.509 102.365Z" fill="white"/>
<path d="M98.5023 58.3491C95.0693 129.47 194.555 150.068 226.649 102.221" stroke="#0F1319" stroke-linecap="round"/>
<path d="M4.00921 113.424C23.6313 184.009 113.903 172.721 133.732 118.746" stroke="#0F1319" stroke-width="0.932121" stroke-linecap="round"/>
</svg>
