<svg width="463" height="178" viewBox="0 0 463 178" fill="none" xmlns="http://www.w3.org/2000/svg">
<path d="M244.466 119.453C244.466 151.592 215.179 177.646 179.052 177.646C142.925 177.646 114.757 151.573 113.638 119.453C112.365 82.9229 142.948 61.2598 179.052 61.2598C215.159 62.5341 244.466 86.7458 244.466 119.453Z" fill="white"/>
<path d="M211.341 83.3997C203.171 50.5193 235.109 17.2477 268.542 13.2384C302.849 7.96775 331.562 32.6901 336.721 64.0653C342.65 100.132 317.724 125.86 283.439 131.127C248.958 135.135 216.308 115.728 211.341 83.3997Z" fill="white"/>
<path d="M322.564 111.399C306.384 81.6313 328.925 41.3948 360.274 29.1037C392.152 15.3718 426.161 32.0756 439.047 61.1441C453.859 94.5587 436.207 125.73 404.35 139.453C371.986 152.007 335.503 141.437 322.564 111.399Z" fill="white"/>
<path d="M245.992 121.616C243.221 53.7361 146.929 42.6017 120.489 90.7941" stroke="#0F1319" stroke-width="1.5" stroke-linecap="round"/>
<path d="M131.518 110.786C131.518 142.925 102.231 168.979 66.1039 168.979C29.9767 168.979 1.80899 142.906 0.68973 110.786C-0.583219 74.256 30.0001 52.5928 66.1039 52.5928C102.21 53.8671 131.518 78.0789 131.518 110.786Z" fill="white"/>
<path d="M132.154 112.948C129.383 45.0685 33.0918 33.9341 6.65126 82.1265" stroke="#0F1319" stroke-width="1.5" stroke-linecap="round"/>
<path d="M332.412 48.8314C301.043 -13.6341 218.613 13.5572 209.989 67.7387" stroke="#0F1319" stroke-width="1.5" stroke-linecap="round"/>
<path d="M430.714 46.9708C383.928 -5.31297 312.03 41.9745 317.315 96.5829" stroke="#0F1319" stroke-width="1.5" stroke-linecap="round"/>
</svg>
