<svg width="78" height="49" viewBox="0 0 78 49" fill="none" xmlns="http://www.w3.org/2000/svg">
<path d="M26.6981 30.1838H25.8869V28.5613H26.6981V30.1838ZM32.0095 26.4254L32.82 26.3915V26.3915L32.0095 26.4254ZM26.6981 28.5613H29.1828V30.1838H26.6981V28.5613ZM29.1828 24.5255H16.7743V22.903H29.1828V24.5255ZM31.199 26.4592C31.1539 25.3784 30.2645 24.5255 29.1828 24.5255V22.903C31.1343 22.903 32.7386 24.4418 32.82 26.3915L31.199 26.4592ZM32.82 26.3915C32.9064 28.4598 31.2529 30.1838 29.1828 30.1838V28.5613C30.3303 28.5613 31.2469 27.6057 31.199 26.4592L32.82 26.3915Z" fill="#0F1319"/>
<path d="M27.8382 35.0309H30.9199C32.4824 35.0309 33.7491 33.7642 33.7491 32.2017V32.2017C33.7491 30.6392 32.4824 29.3726 30.9199 29.3726H26.4741" stroke="#0F1319" stroke-width="1.62245" stroke-linejoin="round"/>
<path d="M27.7764 35.0312H30.5157C31.855 35.0312 32.9407 36.117 32.9407 37.4562V37.4562C32.9407 38.7955 31.855 39.8812 30.5157 39.8812H24.8574" stroke="#0F1319" stroke-width="1.62245" stroke-linejoin="round"/>
<path d="M14.3496 45.5392H15.6784H27.6871C29.2496 45.5392 30.5162 44.2725 30.5162 42.71V42.71C30.5162 41.1475 29.2496 39.8809 27.6871 39.8809H25.7548" stroke="#0F1319" stroke-width="1.62245" stroke-linejoin="round"/>
<path d="M14.3648 45.4768C7.71761 45.4768 2.22461 39.9113 2.22461 32.7109C2.22461 25.5105 7.61319 19.6733 14.2603 19.6733C17.7024 19.6733 20.8069 21.2385 23.0006 23.7476" stroke="#0F1319" stroke-width="1.62245"/>
<path d="M51.3091 30.1838H52.1203V28.5613H51.3091V30.1838ZM45.9977 26.4254L45.1872 26.3915V26.3915L45.9977 26.4254ZM51.3091 28.5613H48.8244V30.1838H51.3091V28.5613ZM48.8244 24.5255H61.2329V22.903H48.8244V24.5255ZM46.8082 26.4592C46.8533 25.3784 47.7427 24.5255 48.8244 24.5255V22.903C46.8729 22.903 45.2686 24.4418 45.1872 26.3915L46.8082 26.4592ZM45.1872 26.3915C45.1008 28.4598 46.7543 30.1838 48.8244 30.1838V28.5613C47.6769 28.5613 46.7603 27.6057 46.8082 26.4592L45.1872 26.3915Z" fill="#0F1319"/>
<path d="M50.169 35.0309H47.0873C45.5248 35.0309 44.2581 33.7642 44.2581 32.2017V32.2017C44.2581 30.6392 45.5248 29.3726 47.0873 29.3726H51.5331" stroke="#0F1319" stroke-width="1.62245" stroke-linejoin="round"/>
<path d="M50.2307 35.0312H47.4913C46.1521 35.0312 45.0663 36.117 45.0663 37.4562V37.4562C45.0663 38.7955 46.1521 39.8812 47.4913 39.8812H53.1497" stroke="#0F1319" stroke-width="1.62245" stroke-linejoin="round"/>
<path d="M63.6576 45.5392H62.3288H50.3201C48.7576 45.5392 47.491 44.2725 47.491 42.71V42.71C47.491 41.1475 48.7576 39.8809 50.3201 39.8809H52.2524" stroke="#0F1319" stroke-width="1.62245" stroke-linejoin="round"/>
<path d="M63.6423 45.4768C70.2895 45.4768 75.7825 39.9113 75.7825 32.7109C75.7825 25.5105 70.3939 19.6733 63.7467 19.6733C60.3047 19.6733 57.2002 21.2385 55.0065 23.7476" stroke="#0F1319" stroke-width="1.62245"/>
<path d="M27.2828 1.08154C28.3907 4.17183 29.7782 7.15605 31.0628 10.1535" stroke="#66D1FC" stroke-width="1.62245" stroke-linecap="round" stroke-linejoin="round"/>
<path d="M40.1345 1.83643C40.1345 5.36443 40.1345 8.89243 40.1345 12.4204" stroke="#66D1FC" stroke-width="1.62245" stroke-linecap="round" stroke-linejoin="round"/>
<path d="M52.2304 7.88623C51.3573 10.0433 50.5965 12.0808 49.2064 13.9342" stroke="#66D1FC" stroke-width="1.62245" stroke-linecap="round" stroke-linejoin="round"/>
</svg>
