<svg width="93" height="46" viewBox="0 0 93 46" fill="none" xmlns="http://www.w3.org/2000/svg">
<g clip-path="url(#clip0)">
<mask id="mask0" mask-type="alpha" maskUnits="userSpaceOnUse" x="0" y="0" width="195" height="46">
<path d="M194.719 0H0V46H194.719V0Z" fill="white"/>
</mask>
<g mask="url(#mask0)">
<path d="M194.719 0H0V46H194.719V0Z" fill="white" fill-opacity="0.01"/>
<mask id="mask1" mask-type="alpha" maskUnits="userSpaceOnUse" x="0" y="0" width="90" height="44">
<path d="M0 0.122559H89.5389V43.8409H0V0.122559Z" fill="white"/>
</mask>
<g mask="url(#mask1)">
<path fill-rule="evenodd" clip-rule="evenodd" d="M60.6664 36.9847C61.0042 36.9847 61.1241 37.0609 61.1241 37.4538V39.5828C61.1241 39.9711 61.0042 40.0687 60.6664 40.0687H60.431V36.9847H60.6664ZM84.9053 39.0446C85.2432 39.0446 85.3469 39.1303 85.3469 39.5091V40.3093C85.3469 40.6852 85.2432 40.7734 84.9053 40.7734H84.5675V39.0446H84.9053ZM58.2603 37.4679C58.2603 37.0821 58.385 36.9847 58.7172 36.9847H58.9594V40.0687H58.7172C58.385 40.0687 58.2603 39.9781 58.2603 39.5899V37.4679ZM29.8467 43.8409H89.5389V33.6696H29.8467V43.8409ZM36.3282 35.3201H34.8136V37.8752H34.0352V35.3201H32.5218V41.9428H34.0352V39.0446H34.8136V41.9428H36.3282V35.3201ZM48.8753 35.3152H45.2438V41.9477H48.8753V40.6902H46.8049V39.1303H48.6573V37.8752H46.8049V36.5703H48.8753V35.3152ZM62.5909 37.5133C62.5909 36.1605 61.9468 35.8177 60.431 35.8177V35.3201H58.9594V35.8177C57.4403 35.8177 56.7911 36.1605 56.7911 37.5133V39.5828C56.7911 40.9261 57.468 41.2879 58.9594 41.2879V41.9428H60.431V41.2879C61.9225 41.2879 62.5909 40.9261 62.5909 39.5828V37.5133ZM74.2305 35.3152H70.4196V36.5703H71.6486V41.9477H73.0875V36.5703H74.2305V35.3152ZM86.8581 39.5542C86.8581 38.23 86.3081 37.8752 84.8227 37.8752H84.5675V35.3201H83.0538V41.9428H84.5675C86.2125 41.9428 86.8581 41.6857 86.8581 40.2355V39.5542ZM25.8539 28.5877V39.0231C23.1298 41.9834 19.2534 43.8409 14.9483 43.8409C6.69582 43.8409 0 37.0274 0 28.6258C0 20.2288 6.69582 13.4156 14.9483 13.4156V24.8537C12.801 24.8537 10.6525 25.687 9.01443 27.3541C8.62308 27.7494 8.28043 28.1758 7.98347 28.6258C5.78479 31.9479 6.12624 36.4966 9.01443 39.435C10.6525 41.0975 12.801 41.9358 14.9483 41.9358C17.0851 41.9358 19.2245 41.1095 20.8614 39.4541C20.8696 39.4446 20.878 39.44 20.887 39.4329V39.428L20.908 39.4114C22.5497 37.7419 22.5497 35.0295 20.908 33.3649C19.2663 31.693 16.6087 31.693 14.9681 33.3649C14.9576 33.3695 14.9531 33.3744 14.9483 33.3815V28.5877H25.8539ZM23.9946 8.00963C24.8963 12.0607 24.8798 14.5516 24.4884 17.3926C23.7788 22.5081 21.5056 26.4181 20.5212 27.7304C19.8452 26.8396 18.8109 25.0226 18.1211 23.3273C18.1211 23.3273 16.816 20.1004 16.4713 16.9568C16.1262 13.811 16.2744 10.6151 17.2798 7.01653C18.2014 3.78288 20.0096 0.877292 20.505 0.122559C20.8157 0.658275 23.089 3.95674 23.9946 8.00963ZM20.505 26.7231C20.9663 25.8489 21.7586 23.9321 21.6886 21.4959C21.5921 19.0096 20.7695 17.1878 20.5212 16.7519C20.2381 17.1878 19.2849 19.2763 19.3012 21.7174C19.3691 24.2344 20.061 25.8683 20.505 26.7231ZM23.7334 14.8873C23.7613 13.3416 23.6156 10.7149 22.8771 7.974C22.1362 5.23306 20.6994 2.62543 20.4875 2.28693C20.2765 2.62543 19.1392 4.7425 18.135 8.05724C17.8705 9.05034 17.394 11.2058 17.3114 13.306C17.2146 15.854 17.5524 18.3808 17.6889 19.0953C17.6889 18.2524 17.7051 15.4421 18.2155 13.1226C18.7268 10.7982 19.6985 8.1239 20.4875 6.76433C21.3439 8.19547 22.4169 11.2841 22.792 13.137C23.1731 14.9896 23.3709 17.3592 23.2894 19.0382C23.5179 18.0641 23.6985 16.4327 23.7334 14.8873ZM85.8094 13.337H89.5389V28.5902H86.6682V19.0238H86.569L85.0917 28.5902H82.7986L81.3249 19.0238H81.2269V28.5902H78.355V13.337H82.0787L83.9381 24.0559L85.8094 13.337ZM65.3207 21.7245C65.633 21.7245 65.8557 21.4434 65.8557 20.9624V15.9922C65.8557 15.5136 65.633 15.2304 65.3207 15.2304H64.566V21.7245H65.3207ZM61.7009 13.337H66.2041C68.2128 13.337 68.5308 14.9945 68.5308 16.0613V20.6767C68.5308 21.7481 68.2128 23.4056 66.2041 23.4056H64.566V28.5902H61.7009V13.337ZM52.9916 13.337H59.6258V28.5902H56.9507V15.2304H55.6646V28.5902H52.9916V13.337ZM47.3396 23.2487V26.1183C47.3396 26.5136 47.6219 26.623 47.7884 26.623C48.0517 26.623 48.2356 26.3825 48.2356 26.1183V22.5723C48.2356 22.0958 48.1563 21.5721 47.0893 21.5721H45.9243V19.8955H47.1301C47.9489 19.8955 48.2356 19.6931 48.2356 18.7642V15.7302C48.2356 15.4685 48.0517 15.2304 47.7884 15.2304C47.6219 15.2304 47.3396 15.3398 47.3396 15.7302V18.2165H44.4677V16.0613C44.4677 14.9945 44.5948 13.337 46.5987 13.337H48.9766C50.9829 13.337 51.1067 14.9945 51.1067 16.0613V18.5046C51.1067 20.1575 50.0183 20.6122 49.1572 20.5695V20.724C51.0821 20.6767 51.1067 22.2482 51.1067 22.7937V25.8634C51.1067 26.9326 50.9829 28.5902 48.9766 28.5902H46.5987C44.5948 28.5902 44.4677 26.9326 44.4677 25.8634V23.2487H47.3396ZM40.0565 22.8579L39.5648 15.2304H39.4064L38.9101 22.8579H40.0565ZM37.2323 13.337H41.7379L43.2338 28.5902H40.4283L40.1626 24.5345H38.8112L38.5398 28.5902H35.74L37.2323 13.337ZM29.8467 13.337H35.3171V15.2304H32.713V28.5902H29.8467V13.337ZM74.529 13.337C76.5374 13.337 76.6634 14.9945 76.6634 16.0613V25.8634C76.6634 26.9326 76.5374 28.5902 74.529 28.5902H72.1566C70.1515 28.5902 70.0304 26.9326 70.0304 25.8634V16.0613C70.0304 14.9945 70.1515 13.337 72.1566 13.337H74.529ZM73.3463 26.7041C73.6922 26.7041 73.9799 26.4326 73.9799 26.0968L73.979 26.0778V15.854V15.8088L73.9742 15.7612C73.9441 15.4636 73.6715 15.2255 73.3414 15.2255C73.0129 15.2255 72.7496 15.4636 72.7112 15.7612V15.8088V15.854V26.0778L72.7066 26.0968C72.7066 26.4326 72.9931 26.7041 73.3463 26.7041Z" fill="#B6B6B6"/>
</g>
</g>
</g>
<defs>
<clipPath id="clip0">
<rect width="93" height="46" fill="white"/>
</clipPath>
</defs>
</svg>
