<svg width="167" height="18" viewBox="0 0 167 18" fill="none" xmlns="http://www.w3.org/2000/svg">
<path d="M2.88117 12.2806C3.00712 13.3819 3.40072 14.1844 4.06197 14.6878C4.73897 15.1913 5.73872 15.4431 7.06122 15.4431C7.70672 15.4431 8.2499 15.3723 8.69073 15.2307C9.13156 15.089 9.4858 14.9002 9.75345 14.6642C10.0211 14.4282 10.21 14.1529 10.3202 13.8382C10.4304 13.5078 10.4856 13.1617 10.4856 12.7998C10.4856 12.5323 10.4462 12.2727 10.3675 12.021C10.2888 11.7535 10.1471 11.5096 9.94238 11.2894C9.73771 11.0691 9.46219 10.8803 9.11582 10.7229C8.76945 10.5499 8.32862 10.4161 7.79332 10.3217L5.64425 9.92053C4.79407 9.76319 4.03835 9.56652 3.3771 9.33051C2.71585 9.09451 2.15694 8.7877 1.70036 8.41009C1.25953 8.01675 0.921028 7.54474 0.684867 6.99406C0.46445 6.42765 0.354242 5.74323 0.354242 4.94081C0.354242 4.13839 0.511682 3.43825 0.826564 2.84036C1.15719 2.24248 1.6059 1.74687 2.17268 1.35353C2.73947 0.944455 3.40859 0.645514 4.18005 0.45671C4.96726 0.252171 5.81744 0.149902 6.73059 0.149902C7.89565 0.149902 8.87179 0.283639 9.65899 0.551112C10.4462 0.818585 11.0838 1.17259 11.5719 1.61314C12.06 2.03795 12.4299 2.53356 12.6819 3.09997C12.9338 3.66638 13.1069 4.2564 13.2014 4.87001L10.5092 5.29482C10.2888 4.3508 9.90302 3.65065 9.35198 3.19437C8.81668 2.7381 7.95863 2.50996 6.77782 2.50996C6.10083 2.50996 5.53404 2.57289 5.07746 2.69876C4.63663 2.8089 4.27452 2.9741 3.99112 3.19437C3.72347 3.39891 3.52667 3.64278 3.40072 3.92599C3.29051 4.19346 3.23541 4.47667 3.23541 4.77561C3.23541 5.51509 3.43221 6.06577 3.82581 6.42765C4.23516 6.78952 4.94364 7.07273 5.95126 7.27727L8.28925 7.72568C10.0683 8.05609 11.3751 8.6225 12.2095 9.42492C13.044 10.2116 13.4612 11.3523 13.4612 12.847C13.4612 13.555 13.3274 14.2158 13.0597 14.8294C12.8078 15.4273 12.4142 15.9544 11.8789 16.4107C11.3436 16.8512 10.6745 17.1974 9.87153 17.4491C9.08433 17.7166 8.1633 17.8503 7.10845 17.8503C4.95151 17.8503 3.25902 17.4019 2.03099 16.5051C0.802948 15.5925 0.125953 14.1844 0 12.2806H2.88117Z" fill="#0F1319"/>
<path d="M16.0186 0.574712H18.8762V17.4255H16.0186V0.574712Z" fill="#0F1319"/>
<path d="M22.258 0.574712H25.7295L30.5236 13.9798L35.4594 0.574712H38.8128V17.4255H36.1915V5.17682L31.5627 17.4255H29.2956L24.8321 5.20042V17.4255H22.258V0.574712Z" fill="#0F1319"/>
<path d="M42.1965 0.574712H48.0297C49.3049 0.574712 50.3519 0.716316 51.1706 0.999522C52.005 1.28273 52.6584 1.66034 53.1307 2.13235C53.6031 2.60436 53.9337 3.15504 54.1226 3.78439C54.3115 4.398 54.406 5.04308 54.406 5.71963C54.406 6.44338 54.3115 7.13566 54.1226 7.79648C53.9337 8.4573 53.5952 9.03944 53.1071 9.54292C52.6348 10.0307 51.9893 10.424 51.1706 10.7229C50.3519 11.0062 49.3207 11.1478 48.0769 11.1478H45.0068V17.4255H42.1965V0.574712ZM48.006 8.7641C48.7303 8.7641 49.3207 8.6933 49.7773 8.5517C50.2496 8.41009 50.6196 8.21342 50.8872 7.96168C51.1549 7.69421 51.3359 7.37954 51.4304 7.01766C51.5406 6.65579 51.5957 6.24671 51.5957 5.79043C51.5957 5.31842 51.5406 4.90935 51.4304 4.56321C51.3202 4.20133 51.1234 3.90239 50.84 3.66638C50.5723 3.43038 50.2023 3.24944 49.73 3.12357C49.2734 2.9977 48.6909 2.93477 47.9824 2.93477H45.0068V8.7641H48.006Z" fill="#0F1319"/>
<path d="M59.8035 0.574712V14.9474H68.1636L67.8093 17.4255H56.9459V0.574712H59.8035Z" fill="#0F1319"/>
<path d="M70.2885 0.574712H81.5062V3.02917H73.1461V7.51327H81.0339V9.99133H73.1461V14.971H81.9549L81.6243 17.4255H70.2885V0.574712Z" fill="#0F1319"/>
<path d="M93.0913 17.8503C91.879 17.8503 90.7848 17.6536 89.8087 17.2603C88.8483 16.8512 88.0217 16.2691 87.329 15.5139C86.6363 14.7586 86.101 13.8382 85.7231 12.7526C85.361 11.6512 85.1799 10.4083 85.1799 9.02371C85.1799 7.63914 85.3689 6.39618 85.7467 5.29482C86.1246 4.19346 86.6599 3.26518 87.3526 2.50996C88.0454 1.73901 88.8798 1.15686 89.8559 0.763517C90.8321 0.354441 91.9105 0.149902 93.0913 0.149902C94.2879 0.149902 95.3742 0.354441 96.3504 0.763517C97.3265 1.15686 98.153 1.73114 98.83 2.48636C99.507 3.24158 100.027 4.16986 100.389 5.27122C100.767 6.35685 100.955 7.59194 100.955 8.97651C100.955 10.3768 100.774 11.6276 100.412 12.729C100.05 13.8146 99.5307 14.7429 98.8537 15.5139C98.1767 16.2691 97.3501 16.8512 96.374 17.2603C95.4136 17.6536 94.3194 17.8503 93.0913 17.8503ZM93.0677 15.3959C94.6894 15.3959 95.9174 14.8294 96.7518 13.6966C97.5863 12.5481 98.0035 10.9826 98.0035 9.00011C98.0035 8.00889 97.8933 7.11993 97.6729 6.33325C97.4682 5.54656 97.1612 4.87788 96.7518 4.3272C96.3425 3.77652 95.8308 3.35171 95.2168 3.05277C94.6028 2.75383 93.8864 2.60436 93.0677 2.60436C92.249 2.60436 91.5327 2.75383 90.9186 3.05277C90.3046 3.35171 89.7851 3.77652 89.36 4.3272C88.9506 4.87788 88.6436 5.54656 88.439 6.33325C88.2343 7.11993 88.1319 8.00889 88.1319 9.00011C88.1319 10.9826 88.5413 12.5481 89.36 13.6966C90.1944 14.8294 91.4303 15.3959 93.0677 15.3959Z" fill="white"/>
<path d="M114.953 0.574711V3.02917H107.042V7.79648H114.481V10.2745H107.042V17.4255H104.184V0.574711H114.953Z" fill="white"/>
<path d="M128.709 0.574711V3.02917H120.798V7.79648H128.237V10.2745H120.798V17.4255H117.94V0.574711H128.709Z" fill="white"/>
<path d="M131.696 0.574711H134.554V17.4255H131.696V0.574711Z" fill="white"/>
<path d="M152.448 11.7378C152.354 12.6189 152.141 13.4291 151.811 14.1686C151.48 14.9081 151.023 15.5532 150.441 16.1039C149.858 16.6546 149.15 17.0872 148.315 17.4019C147.481 17.7008 146.513 17.8503 145.411 17.8503C144.198 17.8503 143.112 17.6458 142.152 17.2367C141.207 16.8276 140.404 16.2455 139.743 15.4903C139.097 14.7193 138.601 13.791 138.255 12.7054C137.924 11.604 137.759 10.3768 137.759 9.02371C137.759 7.63914 137.94 6.39618 138.302 5.29482C138.68 4.19346 139.208 3.26518 139.885 2.50996C140.562 1.73901 141.372 1.15686 142.317 0.763517C143.262 0.354441 144.301 0.149902 145.434 0.149902C146.489 0.149902 147.402 0.283639 148.174 0.551113C148.945 0.818586 149.599 1.20406 150.134 1.70754C150.685 2.19528 151.118 2.7853 151.433 3.47758C151.763 4.16986 152.007 4.94081 152.165 5.79043L149.355 6.19164C149.229 5.62523 149.071 5.12175 148.882 4.68121C148.693 4.24067 148.441 3.87092 148.127 3.57198C147.827 3.25731 147.457 3.0213 147.017 2.86397C146.576 2.6909 146.048 2.60436 145.434 2.60436C144.679 2.60436 144.009 2.75383 143.427 3.05277C142.844 3.35171 142.348 3.78439 141.939 4.3508C141.546 4.90148 141.246 5.57016 141.042 6.35685C140.837 7.14353 140.735 8.02462 140.735 9.00011C140.735 9.99133 140.837 10.8803 141.042 11.667C141.262 12.4537 141.577 13.1302 141.986 13.6966C142.396 14.2473 142.884 14.6721 143.451 14.971C144.033 15.2543 144.694 15.3959 145.434 15.3959C146.096 15.3959 146.654 15.3093 147.111 15.1363C147.583 14.9632 147.977 14.7193 148.292 14.4046C148.607 14.09 148.851 13.7124 149.024 13.2718C149.213 12.8155 149.347 12.3042 149.425 11.7378H152.448Z" fill="white"/>
<path d="M155.334 0.574711H166.551V3.02917H158.191V7.51327H166.079V9.99133H158.191V14.971H167L166.669 17.4255H155.334V0.574711Z" fill="white"/>
</svg>
