<svg width="167" height="18" viewBox="0 0 167 18" fill="none" xmlns="http://www.w3.org/2000/svg">
<path d="M2.88117 12.1307C3.00712 13.232 3.40072 14.0345 4.06197 14.5379C4.73897 15.0414 5.73872 15.2932 7.06122 15.2932C7.70672 15.2932 8.2499 15.2224 8.69073 15.0807C9.13156 14.9391 9.4858 14.7503 9.75345 14.5143C10.0211 14.2783 10.21 14.003 10.3202 13.6883C10.4304 13.3579 10.4856 13.0118 10.4856 12.6499C10.4856 12.3824 10.4462 12.1228 10.3675 11.8711C10.2888 11.6036 10.1471 11.3597 9.94238 11.1395C9.73771 10.9192 9.46219 10.7304 9.11582 10.573C8.76945 10.4 8.32862 10.2662 7.79332 10.1718L5.64425 9.77063C4.79407 9.61329 4.03835 9.41662 3.3771 9.18061C2.71585 8.94461 2.15694 8.6378 1.70036 8.26019C1.25953 7.86685 0.921028 7.39484 0.684867 6.84416C0.46445 6.27775 0.354242 5.59333 0.354242 4.79091C0.354242 3.98849 0.511682 3.28834 0.826564 2.69046C1.15719 2.09258 1.6059 1.59697 2.17268 1.20363C2.73947 0.794552 3.40859 0.495612 4.18005 0.306807C4.96726 0.102269 5.81744 0 6.73059 0C7.89565 0 8.87179 0.133737 9.65899 0.40121C10.4462 0.668683 11.0838 1.02269 11.5719 1.46323C12.06 1.88804 12.4299 2.38366 12.6819 2.95007C12.9338 3.51648 13.1069 4.1065 13.2014 4.72011L10.5092 5.14492C10.2888 4.2009 9.90302 3.50075 9.35198 3.04447C8.81668 2.58819 7.95863 2.36005 6.77782 2.36005C6.10083 2.36005 5.53404 2.42299 5.07746 2.54886C4.63663 2.659 4.27452 2.8242 3.99112 3.04447C3.72347 3.24901 3.52667 3.49288 3.40072 3.77609C3.29051 4.04356 3.23541 4.32677 3.23541 4.62571C3.23541 5.36519 3.43221 5.91587 3.82581 6.27775C4.23516 6.63962 4.94364 6.92283 5.95126 7.12737L8.28925 7.57578C10.0683 7.90618 11.3751 8.4726 12.2095 9.27502C13.044 10.0617 13.4612 11.2024 13.4612 12.6971C13.4612 13.4051 13.3274 14.0659 13.0597 14.6795C12.8078 15.2774 12.4142 15.8045 11.8789 16.2608C11.3436 16.7013 10.6745 17.0475 9.87153 17.2992C9.08433 17.5667 8.1633 17.7004 7.10845 17.7004C4.95151 17.7004 3.25902 17.252 2.03099 16.3552C0.802948 15.4426 0.125953 14.0345 0 12.1307H2.88117Z" fill="#0F1319"/>
<path d="M16.0186 0.42481H18.8762V17.2756H16.0186V0.42481Z" fill="#0F1319"/>
<path d="M22.258 0.42481H25.7295L30.5236 13.8299L35.4594 0.42481H38.8128V17.2756H36.1915V5.02692L31.5627 17.2756H29.2956L24.8321 5.05052V17.2756H22.258V0.42481Z" fill="#0F1319"/>
<path d="M42.1965 0.42481H48.0297C49.3049 0.42481 50.3519 0.566413 51.1706 0.84962C52.005 1.13283 52.6584 1.51044 53.1307 1.98245C53.6031 2.45446 53.9337 3.00514 54.1226 3.63449C54.3115 4.2481 54.406 4.89318 54.406 5.56973C54.406 6.29348 54.3115 6.98576 54.1226 7.64658C53.9337 8.30739 53.5952 8.88954 53.1071 9.39302C52.6348 9.88076 51.9893 10.2741 51.1706 10.573C50.3519 10.8563 49.3207 10.9979 48.0769 10.9979H45.0068V17.2756H42.1965V0.42481ZM48.006 8.6142C48.7303 8.6142 49.3207 8.5434 49.7773 8.4018C50.2496 8.26019 50.6196 8.06352 50.8872 7.81178C51.1549 7.54431 51.3359 7.22964 51.4304 6.86776C51.5406 6.50589 51.5957 6.09681 51.5957 5.64053C51.5957 5.16852 51.5406 4.75944 51.4304 4.4133C51.3202 4.05143 51.1234 3.75249 50.84 3.51648C50.5723 3.28048 50.2023 3.09954 49.73 2.97367C49.2734 2.8478 48.6909 2.78487 47.9824 2.78487H45.0068V8.6142H48.006Z" fill="#0F1319"/>
<path d="M59.8035 0.42481V14.7975H68.1636L67.8093 17.2756H56.9459V0.42481H59.8035Z" fill="#0F1319"/>
<path d="M70.2885 0.42481H81.5062V2.87927H73.1461V7.36337H81.0339V9.84143H73.1461V14.8211H81.9549L81.6243 17.2756H70.2885V0.42481Z" fill="#0F1319"/>
<path d="M93.0913 17.7004C91.879 17.7004 90.7848 17.5037 89.8087 17.1104C88.8483 16.7013 88.0217 16.1192 87.329 15.364C86.6363 14.6087 86.101 13.6883 85.7231 12.6027C85.361 11.5013 85.1799 10.2584 85.1799 8.87381C85.1799 7.48924 85.3689 6.24628 85.7467 5.14492C86.1246 4.04356 86.6599 3.11527 87.3526 2.36006C88.0454 1.5891 88.8798 1.00696 89.8559 0.613615C90.8321 0.204538 91.9105 0 93.0913 0C94.2879 0 95.3742 0.204538 96.3504 0.613615C97.3265 1.00696 98.153 1.58124 98.83 2.33646C99.507 3.09167 100.027 4.01996 100.389 5.12132C100.767 6.20694 100.955 7.44204 100.955 8.82661C100.955 10.2269 100.774 11.4777 100.412 12.5791C100.05 13.6647 99.5307 14.593 98.8537 15.364C98.1767 16.1192 97.3501 16.7013 96.374 17.1104C95.4136 17.5037 94.3194 17.7004 93.0913 17.7004ZM93.0677 15.246C94.6894 15.246 95.9174 14.6795 96.7518 13.5467C97.5863 12.3982 98.0035 10.8327 98.0035 8.85021C98.0035 7.85898 97.8933 6.97003 97.6729 6.18334C97.4682 5.39666 97.1612 4.72798 96.7518 4.1773C96.3425 3.62662 95.8308 3.20181 95.2168 2.90287C94.6028 2.60393 93.8864 2.45446 93.0677 2.45446C92.249 2.45446 91.5327 2.60393 90.9186 2.90287C90.3046 3.20181 89.7851 3.62662 89.36 4.1773C88.9506 4.72798 88.6436 5.39666 88.439 6.18334C88.2343 6.97003 88.1319 7.85898 88.1319 8.85021C88.1319 10.8327 88.5413 12.3982 89.36 13.5467C90.1944 14.6795 91.4303 15.246 93.0677 15.246Z" fill="#3DBBEE"/>
<path d="M114.953 0.424809V2.87927H107.042V7.64658H114.481V10.1246H107.042V17.2756H104.184V0.424809H114.953Z" fill="#3DBBEE"/>
<path d="M128.709 0.424809V2.87927H120.798V7.64658H128.237V10.1246H120.798V17.2756H117.94V0.424809H128.709Z" fill="#3DBBEE"/>
<path d="M131.696 0.424809H134.554V17.2756H131.696V0.424809Z" fill="#3DBBEE"/>
<path d="M152.448 11.5879C152.354 12.469 152.141 13.2792 151.811 14.0187C151.48 14.7582 151.023 15.4033 150.441 15.954C149.858 16.5047 149.15 16.9373 148.315 17.252C147.481 17.5509 146.513 17.7004 145.411 17.7004C144.198 17.7004 143.112 17.4959 142.152 17.0868C141.207 16.6777 140.404 16.0956 139.743 15.3404C139.097 14.5694 138.601 13.6411 138.255 12.5555C137.924 11.4541 137.759 10.2269 137.759 8.87381C137.759 7.48924 137.94 6.24628 138.302 5.14492C138.68 4.04356 139.208 3.11527 139.885 2.36006C140.562 1.5891 141.372 1.00696 142.317 0.613615C143.262 0.204538 144.301 0 145.434 0C146.489 0 147.402 0.133737 148.174 0.40121C148.945 0.668683 149.599 1.05416 150.134 1.55764C150.685 2.04538 151.118 2.63539 151.433 3.32768C151.763 4.01996 152.007 4.79091 152.165 5.64053L149.355 6.04174C149.229 5.47533 149.071 4.97185 148.882 4.53131C148.693 4.09076 148.441 3.72102 148.127 3.42208C147.827 3.10741 147.457 2.8714 147.017 2.71406C146.576 2.54099 146.048 2.45446 145.434 2.45446C144.679 2.45446 144.009 2.60393 143.427 2.90287C142.844 3.20181 142.348 3.63449 141.939 4.2009C141.546 4.75158 141.246 5.42026 141.042 6.20694C140.837 6.99363 140.735 7.87472 140.735 8.85021C140.735 9.84143 140.837 10.7304 141.042 11.5171C141.262 12.3038 141.577 12.9803 141.986 13.5467C142.396 14.0974 142.884 14.5222 143.451 14.8211C144.033 15.1044 144.694 15.246 145.434 15.246C146.096 15.246 146.654 15.1594 147.111 14.9864C147.583 14.8133 147.977 14.5694 148.292 14.2547C148.607 13.9401 148.851 13.5625 149.024 13.1219C149.213 12.6656 149.347 12.1543 149.425 11.5879H152.448Z" fill="#3DBBEE"/>
<path d="M155.334 0.424809H166.551V2.87927H158.191V7.36337H166.079V9.84143H158.191V14.8211H167L166.669 17.2756H155.334V0.424809Z" fill="#3DBBEE"/>
</svg>
