<svg width="31" height="31" viewBox="0 0 31 31" fill="none" xmlns="http://www.w3.org/2000/svg">
<rect width="31" height="31" rx="6" fill="white"/>
<path d="M0 9.6C0 6.23969 0 4.55953 0.653961 3.27606C1.2292 2.14708 2.14708 1.2292 3.27606 0.653961C4.55953 0 6.23969 0 9.6 0H21.4C24.7603 0 26.4405 0 27.7239 0.653961C28.8529 1.2292 29.7708 2.14708 30.346 3.27606C31 4.55953 31 6.23969 31 9.6V21.4C31 24.7603 31 26.4405 30.346 27.7239C29.7708 28.8529 28.8529 29.7708 27.7239 30.346C26.4405 31 24.7603 31 21.4 31H9.6C6.23969 31 4.55953 31 3.27606 30.346C2.14708 29.7708 1.2292 28.8529 0.653961 27.7239C0 26.4405 0 24.7603 0 21.4V9.6Z" fill="white"/>
<rect width="31" height="31" rx="15.5" fill="white"/>
<path d="M23.7 9.725C23.7 10.5948 22.9613 11.3 22.05 11.3C21.1387 11.3 20.4 10.5948 20.4 9.725C20.4 8.85515 21.1387 8.15 22.05 8.15C22.9613 8.15 23.7 8.85515 23.7 9.725Z" fill="#66D1FC"/>
<path fill-rule="evenodd" clip-rule="evenodd" d="M16 20.75C19.0376 20.75 21.5 18.3995 21.5 15.5C21.5 12.6005 19.0376 10.25 16 10.25C12.9624 10.25 10.5 12.6005 10.5 15.5C10.5 18.3995 12.9624 20.75 16 20.75ZM16 18.65C17.8225 18.65 19.3 17.2397 19.3 15.5C19.3 13.7603 17.8225 12.35 16 12.35C14.1775 12.35 12.7 13.7603 12.7 15.5C12.7 17.2397 14.1775 18.65 16 18.65Z" fill="#66D1FC"/>
<path fill-rule="evenodd" clip-rule="evenodd" d="M5 15.08C5 11.5517 5 9.7875 5.71936 8.43986C6.35212 7.25444 7.36179 6.29066 8.60366 5.68666C10.0155 5 11.8637 5 15.56 5H16.44C20.1363 5 21.9845 5 23.3963 5.68666C24.6382 6.29066 25.6479 7.25444 26.2806 8.43986C27 9.7875 27 11.5517 27 15.08V15.92C27 19.4483 27 21.2125 26.2806 22.5601C25.6479 23.7456 24.6382 24.7093 23.3963 25.3133C21.9845 26 20.1363 26 16.44 26H15.56C11.8637 26 10.0155 26 8.60366 25.3133C7.36179 24.7093 6.35212 23.7456 5.71936 22.5601C5 21.2125 5 19.4483 5 15.92V15.08ZM15.56 7.1H16.44C18.3245 7.1 19.6055 7.10163 20.5957 7.17886C21.5602 7.25408 22.0535 7.39042 22.3976 7.55777C23.2255 7.96044 23.8986 8.60296 24.3204 9.39324C24.4957 9.72168 24.6386 10.1925 24.7174 11.1132C24.7983 12.0584 24.8 13.2812 24.8 15.08V15.92C24.8 17.7188 24.7983 18.9416 24.7174 19.8868C24.6386 20.8075 24.4957 21.2783 24.3204 21.6068C23.8986 22.397 23.2255 23.0396 22.3976 23.4422C22.0535 23.6096 21.5602 23.7459 20.5957 23.8211C19.6055 23.8984 18.3245 23.9 16.44 23.9H15.56C13.6755 23.9 12.3945 23.8984 11.4043 23.8211C10.4398 23.7459 9.94652 23.6096 9.60244 23.4422C8.77453 23.0396 8.10141 22.397 7.67957 21.6068C7.50425 21.2783 7.36142 20.8075 7.28261 19.8868C7.20171 18.9416 7.2 17.7188 7.2 15.92V15.08C7.2 13.2812 7.20171 12.0584 7.28261 11.1132C7.36142 10.1925 7.50425 9.72168 7.67957 9.39324C8.10141 8.60296 8.77453 7.96044 9.60244 7.55777C9.94652 7.39042 10.4398 7.25408 11.4043 7.17886C12.3945 7.10163 13.6755 7.1 15.56 7.1Z" fill="#66D1FC"/>
</svg>
