<svg width="245" height="24" viewBox="0 0 245 24" fill="none" xmlns="http://www.w3.org/2000/svg">
<g clip-path="url(#clip0)">
<path d="M0.610596 15.5898C0.610596 15.5898 13.5206 17.7998 14.7506 18.3998C16.1006 18.7798 23.3506 17.5598 23.3506 17.5598L24.6106 16.1298C23.1562 15.4791 21.6673 14.9082 20.1506 14.4198C18.3606 13.8798 0.610596 15.5898 0.610596 15.5898ZM0.610596 7.51985C0.610596 7.51985 13.5206 9.72985 14.7506 10.3298C16.1006 10.7198 23.3506 9.48985 23.3506 9.48985L24.6106 8.05985C23.1572 7.40953 21.6681 6.84196 20.1506 6.35985C18.3606 5.81985 0.610596 7.51985 0.610596 7.51985Z" fill="#828282"/>
<path d="M0.610596 2.17V7.52C18.3606 9 24.6106 5.34 24.6106 5.34V0C24.6106 0 18.3606 3.63 0.610596 2.17Z" fill="#B6B6B6"/>
<path d="M0.610596 10.2401V15.5901C18.4006 17.0501 24.6106 13.4101 24.6106 13.4101V8.06006C24.6106 8.06006 18.3606 11.7001 0.610596 10.2401Z" fill="#B6B6B6"/>
<path d="M0.610596 18.3099V23.6499C18.4006 25.1199 24.6106 21.4699 24.6106 21.4699V16.1299C24.6106 16.1299 18.3606 19.7699 0.610596 18.3099Z" fill="#B6B6B6"/>
<path d="M44.0806 15.0999V20.0999H41.0806V4.09987H47.0806C48.3183 4.08847 49.5436 4.34786 50.6706 4.85987C51.6143 5.31943 52.4083 6.0372 52.9606 6.92987C53.4523 7.82975 53.694 8.84494 53.6606 9.86987C53.6934 10.5871 53.5618 11.3024 53.2758 11.961C52.9898 12.6196 52.557 13.2041 52.0106 13.6699C50.7106 14.6757 49.0918 15.1798 47.4506 15.0899L44.0806 15.0999ZM44.0806 12.0999H47.0806C47.9403 12.1672 48.8006 11.9756 49.5506 11.5499C49.7835 11.3442 49.9654 11.0872 50.0817 10.799C50.198 10.5109 50.2455 10.1996 50.2206 9.88987C50.2498 9.17175 49.9947 8.47107 49.5106 7.93987C48.8248 7.36154 47.9468 7.06176 47.0506 7.09987H44.0506L44.0806 12.0999ZM65.4806 14.4199C66.3128 13.9424 67.0031 13.2521 67.4806 12.4199C67.9164 11.4611 68.1153 10.4116 68.0606 9.35987C68.1084 8.67465 67.997 7.98766 67.735 7.35269C67.4731 6.71772 67.0677 6.15201 66.5506 5.69987C65.3004 4.66866 63.7312 4.10316 62.1106 4.09987H56.1106V20.0999H59.1106V15.0999H62.1706L64.7806 20.0999H68.4806L65.4806 14.4199ZM64.0906 11.4199C63.5342 11.8891 62.8165 12.1224 62.0906 12.0699H59.0906V7.06987H62.0906C62.4563 7.05496 62.8213 7.11268 63.1646 7.23969C63.5079 7.36671 63.8226 7.5605 64.0906 7.80987C64.318 8.05282 64.4937 8.33939 64.6071 8.65222C64.7206 8.96504 64.7694 9.29764 64.7506 9.62987C64.7788 9.96292 64.7344 10.2981 64.6204 10.6123C64.5065 10.9266 64.3257 11.2123 64.0906 11.4499V11.4199ZM84.1106 12.4999C84.1384 13.8819 83.844 15.2514 83.2506 16.4999C82.7194 17.6097 81.8654 18.5334 80.8006 19.1499C79.6927 19.791 78.4303 20.1161 77.1506 20.0899C75.8757 20.1128 74.6182 19.7915 73.5106 19.1599C72.4403 18.55 71.5766 17.6341 71.0306 16.5299C70.4204 15.304 70.1151 13.949 70.1406 12.5799V11.8199C70.1129 10.4368 70.4109 9.06653 71.0106 7.81987C71.549 6.7033 72.4092 5.7734 73.4806 5.14987C74.5986 4.53982 75.8519 4.22015 77.1256 4.22015C78.3992 4.22015 79.6525 4.53982 80.7706 5.14987C81.8374 5.77906 82.6962 6.7074 83.2406 7.81987C83.8413 9.06616 84.1394 10.4366 84.1106 11.8199V12.4999ZM80.6806 11.7999C80.7701 10.5037 80.4481 9.21232 79.7606 8.10987C79.4448 7.71577 79.0445 7.39767 78.5893 7.17908C78.1341 6.96049 77.6355 6.847 77.1306 6.847C76.6256 6.847 76.127 6.96049 75.6718 7.17908C75.2166 7.39767 74.8163 7.71577 74.5006 8.10987C73.8096 9.20045 73.4807 10.4813 73.5606 11.7699V12.5199C73.4836 13.8131 73.8084 15.0985 74.4906 16.1999C74.799 16.6038 75.1956 16.932 75.6502 17.1595C76.1047 17.387 76.6051 17.5077 77.1133 17.5126C77.6216 17.5174 78.1242 17.4061 78.583 17.1873C79.0417 16.9685 79.4445 16.6479 79.7606 16.2499C80.4428 15.1525 80.7645 13.8692 80.6806 12.5799V11.7999ZM89.0606 15.0599V20.0599H86.0606V4.09987H92.0006C93.1314 4.0558 94.2534 4.31474 95.2506 4.84987C96.1528 5.38449 96.9194 6.12028 97.4906 6.99987C98.0012 7.85823 98.2642 8.8412 98.2506 9.83987C98.2822 10.5579 98.149 11.2737 97.8613 11.9324C97.5735 12.591 97.1389 13.1751 96.5906 13.6399C95.2829 14.6357 93.6612 15.129 92.0206 15.0299L89.0606 15.0599ZM89.0606 12.3199H92.0606C92.7813 12.3573 93.4914 12.1336 94.0606 11.6899C94.3013 11.4589 94.4887 11.1782 94.6096 10.8673C94.7305 10.5564 94.782 10.2228 94.7606 9.88987C94.7898 9.17175 94.5347 8.47107 94.0506 7.93987C93.7888 7.67984 93.4759 7.4771 93.1315 7.34454C92.7872 7.21198 92.4191 7.1525 92.0506 7.16987H89.0606V12.3199ZM113.111 7.09987H108.111V20.0999H105.111V7.09987H100.111V4.09987H113.111V7.09987ZM125.111 14.0999H118.111V17.0999H126.111V20.0999H115.111V4.09987H126.111V7.09987H118.111V11.0999H125.111V14.0999ZM156.111 20.0999H153.111V14.0999H146.111V20.0999H143.111V4.09987H146.111V11.0999H153.111V4.09987H156.111V20.0999ZM173.471 13.7399C174.392 13.4152 175.196 12.8234 175.781 12.0399C176.338 11.2625 176.629 10.326 176.611 9.36987C176.656 8.68437 176.544 7.99756 176.284 7.36163C176.025 6.7257 175.623 6.15738 175.111 5.69987C173.93 4.67066 172.417 4.10248 170.851 4.09987H166.111V20.0999H168.111V14.0999H171.361L174.591 20.0999H177.001L173.471 13.7399ZM170.891 12.0999H168.111V6.09987H170.901C171.859 6.07655 172.792 6.40772 173.521 7.02987C173.832 7.33102 174.075 7.69614 174.232 8.1001C174.389 8.50405 174.457 8.93725 174.431 9.36987C174.447 9.78864 174.37 10.2058 174.205 10.5913C174.041 10.9769 173.794 11.3213 173.481 11.5999C172.841 12.1599 171.961 12.0999 170.891 12.0999ZM191.111 4.09987V14.6299C191.146 15.3172 191.041 16.0046 190.804 16.6507C190.567 17.2968 190.202 17.8884 189.731 18.3899C188.672 19.4124 187.271 20.0042 185.801 20.0499H185.231C183.665 20.1323 182.127 19.6137 180.931 18.5999C180.372 18.1969 179.917 17.6684 179.601 17.0569C179.285 16.4454 179.117 15.7682 179.111 15.0799V4.09987H181.111V15.0999C181.111 16.2899 181.781 16.6599 182.431 17.3099C182.805 17.6577 183.246 17.9256 183.728 18.0976C184.209 18.2695 184.72 18.3417 185.231 18.3099C185.742 18.3407 186.255 18.2681 186.737 18.0963C187.22 17.9244 187.664 17.657 188.041 17.3099C188.396 16.9497 188.675 16.5212 188.861 16.0503C189.046 15.5794 189.135 15.0758 189.121 14.5699V4.09987H191.111ZM199.441 12.9999C197.961 12.6851 196.568 12.0503 195.361 11.1399C194.958 10.813 194.635 10.3995 194.415 9.93022C194.195 9.46096 194.084 8.94807 194.091 8.42987C194.087 7.84165 194.225 7.26127 194.495 6.73867C194.766 6.21607 195.158 5.76691 195.641 5.42987C196.802 4.59246 198.21 4.16981 199.641 4.22987C200.674 4.2148 201.698 4.42644 202.641 4.84987C203.471 5.21183 204.181 5.80119 204.691 6.54987C205.17 7.24307 205.425 8.06696 205.421 8.90987H203.361C203.376 8.48634 203.294 8.06487 203.121 7.67815C202.947 7.29143 202.687 6.94984 202.361 6.67987C201.595 6.10172 200.648 5.8178 199.691 5.87987C198.808 5.82803 197.932 6.05926 197.191 6.53987C196.9 6.75033 196.666 7.0293 196.509 7.35203C196.352 7.67475 196.277 8.03125 196.291 8.38987C196.296 8.70464 196.376 9.01361 196.524 9.29164C196.672 9.56967 196.883 9.8089 197.141 9.98987C198.027 10.561 199.01 10.9675 200.041 11.1899C201.152 11.4545 202.226 11.8541 203.241 12.3799C203.926 12.7435 204.513 13.2686 204.951 13.9099C205.337 14.5223 205.532 15.236 205.511 15.9599C205.52 16.549 205.383 17.1313 205.113 17.6547C204.842 18.1782 204.446 18.6266 203.961 18.9599C202.727 19.7648 201.272 20.1602 199.801 20.0899C198.717 20.0954 197.644 19.8882 196.641 19.4799C195.747 19.1383 194.96 18.5654 194.361 17.8199C193.837 17.1228 193.559 16.2717 193.571 15.3999H195.741C195.727 15.8319 195.82 16.2608 196.012 16.6481C196.203 17.0355 196.488 17.3693 196.841 17.6199C197.708 18.1983 198.739 18.4823 199.781 18.4299C200.704 18.4882 201.624 18.2575 202.411 17.7699C202.703 17.5764 202.943 17.3134 203.109 17.0045C203.274 16.6956 203.361 16.3504 203.361 15.9999C203.381 15.6583 203.314 15.3171 203.165 15.009C203.016 14.7008 202.791 14.436 202.511 14.2399C201.561 13.6627 200.524 13.2439 199.441 12.9999ZM213.131 12.9999C211.663 12.6819 210.282 12.0509 209.081 11.1499C208.678 10.823 208.355 10.4095 208.135 9.94022C207.915 9.47096 207.804 8.95807 207.811 8.43987C207.809 7.85211 207.949 7.27262 208.219 6.75043C208.489 6.22825 208.88 5.77872 209.361 5.43987C210.522 4.60387 211.931 4.18137 213.361 4.23987C214.394 4.2225 215.419 4.43424 216.361 4.85987C217.193 5.22164 217.907 5.81084 218.421 6.55987C218.893 7.25617 219.143 8.07868 219.141 8.91987H216.971C216.982 8.49977 216.899 8.08248 216.725 7.69959C216.552 7.3167 216.294 6.97825 215.971 6.70987C215.205 6.13172 214.258 5.8478 213.301 5.90987C212.418 5.85803 211.542 6.08926 210.801 6.56987C210.513 6.78264 210.282 7.06233 210.127 7.38469C209.971 7.70706 209.897 8.06238 209.911 8.41987C209.916 8.73464 209.996 9.04361 210.144 9.32164C210.292 9.59967 210.503 9.8389 210.761 10.0199C211.643 10.5913 212.623 10.9978 213.651 11.2199C214.765 11.4847 215.843 11.8843 216.861 12.4099C217.546 12.7735 218.133 13.2986 218.571 13.9399C218.953 14.5542 219.147 15.2666 219.131 15.9899C219.141 16.5802 219.003 17.1637 218.731 17.6875C218.458 18.2114 218.06 18.659 217.571 18.9899C216.337 19.7948 214.882 20.1902 213.411 20.1199C212.331 20.1254 211.26 19.9181 210.261 19.5099C209.372 19.165 208.591 18.5883 208.001 17.8399C207.477 17.142 207.196 16.2922 207.201 15.4199H209.381C209.364 15.8523 209.456 16.2821 209.648 16.6699C209.84 17.0577 210.126 17.3912 210.481 17.6399C211.344 18.2188 212.372 18.503 213.411 18.4499C214.334 18.5082 215.254 18.2775 216.041 17.7899C216.33 17.5919 216.566 17.3242 216.725 17.0113C216.884 16.6985 216.961 16.3506 216.951 15.9999C216.968 15.6598 216.9 15.3209 216.753 15.0136C216.607 14.7063 216.386 14.4404 216.111 14.2399C215.187 13.6747 214.182 13.2564 213.131 12.9999ZM224.111 20.0999H222.111V4.09987H224.111V20.0999ZM237.571 16.0999H230.571L229.061 20.0999H226.831L233.061 4.09987H235.061L241.271 20.0999H239.051L237.571 16.0999ZM231.381 14.0999H236.811L234.091 6.99987L231.381 14.0999ZM137.361 15.0999C137.28 15.7388 136.996 16.3348 136.551 16.7999C135.878 17.3003 135.047 17.5417 134.211 17.4799C133.723 17.5176 133.233 17.4299 132.788 17.2252C132.344 17.0204 131.959 16.7053 131.671 16.3099C131.045 15.1857 130.763 13.9026 130.861 12.6199V11.4499C130.786 10.2009 131.086 8.95807 131.721 7.87987C132.016 7.49295 132.402 7.18533 132.846 6.98462C133.289 6.7839 133.775 6.69637 134.261 6.72987C135.088 6.66808 135.909 6.90983 136.571 7.40987C137.02 7.87411 137.32 8.46299 137.431 9.09987H140.761C140.541 7.72832 139.86 6.47265 138.831 5.53987C137.65 4.69867 136.259 4.20263 134.812 4.10726C133.366 4.01189 131.921 4.32096 130.641 4.99987C129.604 5.62097 128.775 6.53647 128.261 7.62987C127.676 8.88046 127.392 10.2501 127.431 11.6299V12.6299C127.318 14.635 127.965 16.6091 129.241 18.1599C129.874 18.842 130.652 19.3752 131.516 19.721C132.381 20.0669 133.311 20.2167 134.241 20.1599C135.913 20.2408 137.56 19.7272 138.891 18.7099C139.937 17.8002 140.61 16.5358 140.781 15.1599L137.361 15.0999Z" fill="#B6B6B6"/>
</g>
<defs>
<clipPath id="clip0">
<rect width="244" height="24" fill="white" transform="translate(0.360596)"/>
</clipPath>
</defs>
</svg>
