<svg width="27" height="27" viewBox="0 0 27 27" fill="none" xmlns="http://www.w3.org/2000/svg">
<path d="M13.0031 1.20508L13.0513 8.90557" stroke="black" stroke-width="0.901697" stroke-linecap="round"/>
<path d="M0.469552 13.8947L8.16406 13.8467" stroke="black" stroke-width="0.901697" stroke-linecap="round"/>
<path d="M18.2995 13.7864L26 13.7383" stroke="black" stroke-width="0.901697" stroke-linecap="round"/>
<path d="M13.0935 18.2354L13.1416 25.9358" stroke="black" stroke-width="0.901697" stroke-linecap="round"/>
<path d="M13.238 14.869C12.9824 14.8702 12.7321 14.7956 12.5189 14.6546C12.3057 14.5135 12.1392 14.3124 12.0403 14.0767C11.9413 13.841 11.9145 13.5813 11.9632 13.3304C12.0119 13.0794 12.1339 12.8486 12.3138 12.667C12.4937 12.4854 12.7235 12.3612 12.9739 12.3102C13.2244 12.2592 13.4844 12.2835 13.721 12.3803C13.9576 12.477 14.1602 12.6417 14.3032 12.8536C14.4462 13.0655 14.5232 13.315 14.5244 13.5706C14.5252 13.7403 14.4926 13.9085 14.4283 14.0656C14.3641 14.2228 14.2695 14.3657 14.1501 14.4862C14.0306 14.6068 13.8886 14.7027 13.7321 14.7683C13.5756 14.834 13.4077 14.8682 13.238 14.869Z" fill="black"/>
</svg>
