<svg width="104" height="34" viewBox="0 0 104 34" fill="none" xmlns="http://www.w3.org/2000/svg">
<g clip-path="url(#clip0)">
<path d="M100.529 7.59699L99.8217 7.60068L99.8339 9.90579L99.6748 9.90663L99.6626 7.60152L98.9561 7.60522L98.9551 7.44768L100.528 7.43945L100.529 7.59699Z" fill="#B6B6B6"/>
<path d="M103.347 7.43408L103.361 9.88632L103.201 9.88716L103.19 7.7327L102.284 8.87593L101.324 7.73538L101.335 9.8969L101.176 9.89774L101.164 7.4455L101.291 7.44483L102.279 8.62384L103.22 7.43475L103.347 7.43408Z" fill="#B6B6B6"/>
<path d="M1.29233 21.2689C3.49873 22.8189 5.89471 22.875 6.78249 22.7955C7.91407 22.7161 8.88419 21.9168 8.77677 20.8766C8.69765 19.7819 7.86358 19.301 6.78706 18.9258C3.77319 17.8283 1.08224 16.3056 1.0858 13.1028C1.09004 9.90038 3.32592 7.44731 6.53056 7.29078C7.52592 7.23771 8.84522 7.24006 11.3208 8.09593L10.8317 11.7784C8.70748 10.9229 7.49491 10.9479 6.90312 10.9739C5.53028 11.0529 4.91002 12.0394 4.98965 13.1065C5.09537 14.1744 6.03754 14.6562 7.14065 15.0307C10.1279 16.1274 12.7111 17.8377 12.7069 20.8806C12.7045 24.0555 10.4935 26.4832 6.8855 26.6644C5.8083 26.7442 3.41402 26.6077 0.803711 25.2716L1.29233 21.2689Z" fill="#B6B6B6"/>
<path d="M19.6451 26.5181L19.6604 11.2538L14.8689 11.2481L14.8726 7.4585L28.3059 7.47193L28.3023 11.2622L23.5112 11.258L23.4963 26.5213L19.6451 26.5181Z" fill="#B6B6B6"/>
<path d="M41.5172 6.37061H42.0717L49.7351 26.4827L45.4015 26.5057L39.5881 11.0868L41.5172 6.37061Z" fill="#B6B6B6"/>
<path d="M55.0641 26.4929L55.0783 11.2284L50.2878 11.2234L50.2928 7.43311L63.7251 7.44704L63.7209 11.237L58.9311 11.2321L58.9149 26.4966L55.0641 26.4929Z" fill="#B6B6B6"/>
<path d="M86.6679 7.13087C99.9117 7.14497 99.8919 26.8122 86.6477 26.7996C73.4012 26.7858 73.422 7.11726 86.6679 7.13087ZM86.6635 11.054C78.9627 11.0456 78.9513 22.8414 86.6503 22.8499C94.3495 22.8578 94.3621 11.0619 86.6635 11.054Z" fill="#B6B6B6"/>
<path d="M72.3964 15.4935L72.3984 7.47475L69.3894 7.47021C70.3736 10.0988 71.3905 12.813 72.3964 15.4935Z" fill="#B6B6B6"/>
<path d="M75.0633 33.5542L62.5385 0.451022L62.0583 0.445312L68.4722 17.3797L68.4634 26.5059L71.9276 26.5096L74.5936 33.5542H75.0633Z" fill="#B6B6B6"/>
<path d="M43.9413 33.5542L31.3487 0.445312H30.9006L35.0703 11.4697L28.9319 26.5262L33.294 26.5314L34.1128 24.4774L40.0198 24.4833L43.4691 33.5542H43.9413ZM35.5746 20.9026L37.1731 17.0001L38.6595 20.9066L35.5746 20.9026Z" fill="#B6B6B6"/>
</g>
<defs>
<clipPath id="clip0">
<rect width="102.557" height="33.1089" fill="white" transform="translate(0.803711 0.445312)"/>
</clipPath>
</defs>
</svg>
