<svg width="36" height="36" viewBox="0 0 36 36" fill="none" xmlns="http://www.w3.org/2000/svg">
<path d="M15.6967 33.4829C7.02758 32.329 0.93533 24.3659 2.08923 15.6968C3.24312 7.02775 11.2062 0.935498 19.8753 2.08939C28.5444 3.24329 34.6366 11.2064 33.4827 19.8755C32.3288 28.5445 24.3657 34.6368 15.6967 33.4829Z" fill="#66D1FC"/>
<path d="M26.345 18.5797L11.9874 10.73C11.3187 10.3827 10.6487 10.7262 10.7349 11.8187L10.7338 11.8172L11.6947 24.3003C11.7711 25.1864 12.2547 25.4638 13.0242 25.1535L17.3334 22.7837L18.9834 24.8591C19.1649 25.0962 19.3179 25.2963 19.7234 25.3503L19.9764 21.3197L13.5781 13.7813C13.2986 13.4605 13.7067 13.3551 14.0871 13.6879L22.3216 20.5429L26.3569 19.85C27.2335 19.6951 27.3283 19.1233 26.345 18.5797Z" fill="white"/>
</svg>
