<svg width="82" height="31" viewBox="0 0 82 31" fill="none" xmlns="http://www.w3.org/2000/svg">
<rect width="31" height="31" rx="3" fill="white"/>
<path d="M23.4618 17.9453C23.2141 17.6286 23.1586 17.3081 23.294 16.9833C23.6318 16.1168 28.5518 10.6133 26.5022 10.6133C25.0938 10.6309 23.4 10.6133 22.0498 10.6133C21.7991 10.6708 21.6369 10.7947 21.5354 11.0468C20.7458 12.7619 19.7796 14.8549 18.3636 16.2001C18.1773 16.3416 18.0611 16.3355 17.8489 16.2832C16.8556 15.2981 17.9147 11.923 17.3107 10.5894C17.1916 10.3283 16.931 10.2104 16.6644 10.144C15.3159 9.84128 12.2359 10.0215 11.7334 10.6309C11.5898 10.8052 11.5697 10.9002 11.6734 10.9159C12.1522 10.987 12.4912 11.1573 12.6907 11.4264C13.067 12.2071 13.3444 16.3661 12.2359 16.3661C11.1275 16.3661 9.34006 12.2845 8.84902 11.1531C8.71835 10.8124 8.3857 10.6171 8.0352 10.5594L4.75589 10.583C4.17947 10.583 3.85731 10.8509 4.06162 11.3905C5.76963 15.3845 9.50732 23.1261 15.24 22.9323C15.8143 22.9323 16.8022 23.14 17.2508 22.671C17.8671 21.9007 17.1154 20.5288 18.1723 20.0056C18.4388 19.8719 18.7151 19.9839 18.9441 20.1482C20.1197 20.9915 20.7439 22.4716 22.1937 22.9209C22.4486 23 22.6719 23.0198 22.8637 22.9802L25.9275 22.9328C26.4963 22.9328 27.0566 22.6944 26.9389 22.0538C26.4922 20.68 24.7124 19.2679 23.4618 17.9453Z" fill="#66D1FC"/>
<rect x="51" width="31" height="31" rx="6" fill="white"/>
<path d="M51 9.6C51 6.23969 51 4.55953 51.654 3.27606C52.2292 2.14708 53.1471 1.2292 54.2761 0.653961C55.5595 0 57.2397 0 60.6 0H72.4C75.7603 0 77.4405 0 78.7239 0.653961C79.8529 1.2292 80.7708 2.14708 81.346 3.27606C82 4.55953 82 6.23969 82 9.6V21.4C82 24.7603 82 26.4405 81.346 27.7239C80.7708 28.8529 79.8529 29.7708 78.7239 30.346C77.4405 31 75.7603 31 72.4 31H60.6C57.2397 31 55.5595 31 54.2761 30.346C53.1471 29.7708 52.2292 28.8529 51.654 27.7239C51 26.4405 51 24.7603 51 21.4V9.6Z" fill="white"/>
<rect x="51" width="31" height="31" rx="15.5" fill="white"/>
<path d="M74.7 9.725C74.7 10.5948 73.9613 11.3 73.05 11.3C72.1387 11.3 71.4 10.5948 71.4 9.725C71.4 8.85515 72.1387 8.15 73.05 8.15C73.9613 8.15 74.7 8.85515 74.7 9.725Z" fill="#66D1FC"/>
<path fill-rule="evenodd" clip-rule="evenodd" d="M67 20.75C70.0376 20.75 72.5 18.3995 72.5 15.5C72.5 12.6005 70.0376 10.25 67 10.25C63.9624 10.25 61.5 12.6005 61.5 15.5C61.5 18.3995 63.9624 20.75 67 20.75ZM67 18.65C68.8225 18.65 70.3 17.2397 70.3 15.5C70.3 13.7603 68.8225 12.35 67 12.35C65.1775 12.35 63.7 13.7603 63.7 15.5C63.7 17.2397 65.1775 18.65 67 18.65Z" fill="#66D1FC"/>
<path fill-rule="evenodd" clip-rule="evenodd" d="M56 15.08C56 11.5517 56 9.7875 56.7194 8.43986C57.3521 7.25444 58.3618 6.29066 59.6037 5.68666C61.0155 5 62.8637 5 66.56 5H67.44C71.1363 5 72.9845 5 74.3963 5.68666C75.6382 6.29066 76.6479 7.25444 77.2806 8.43986C78 9.7875 78 11.5517 78 15.08V15.92C78 19.4483 78 21.2125 77.2806 22.5601C76.6479 23.7456 75.6382 24.7093 74.3963 25.3133C72.9845 26 71.1363 26 67.44 26H66.56C62.8637 26 61.0155 26 59.6037 25.3133C58.3618 24.7093 57.3521 23.7456 56.7194 22.5601C56 21.2125 56 19.4483 56 15.92V15.08ZM66.56 7.1H67.44C69.3245 7.1 70.6055 7.10163 71.5957 7.17886C72.5602 7.25408 73.0535 7.39042 73.3976 7.55777C74.2255 7.96044 74.8986 8.60296 75.3204 9.39324C75.4957 9.72168 75.6386 10.1925 75.7174 11.1132C75.7983 12.0584 75.8 13.2812 75.8 15.08V15.92C75.8 17.7188 75.7983 18.9416 75.7174 19.8868C75.6386 20.8075 75.4957 21.2783 75.3204 21.6068C74.8986 22.397 74.2255 23.0396 73.3976 23.4422C73.0535 23.6096 72.5602 23.7459 71.5957 23.8211C70.6055 23.8984 69.3245 23.9 67.44 23.9H66.56C64.6755 23.9 63.3945 23.8984 62.4043 23.8211C61.4398 23.7459 60.9465 23.6096 60.6024 23.4422C59.7745 23.0396 59.1014 22.397 58.6796 21.6068C58.5043 21.2783 58.3614 20.8075 58.2826 19.8868C58.2017 18.9416 58.2 17.7188 58.2 15.92V15.08C58.2 13.2812 58.2017 12.0584 58.2826 11.1132C58.3614 10.1925 58.5043 9.72168 58.6796 9.39324C59.1014 8.60296 59.7745 7.96044 60.6024 7.55777C60.9465 7.39042 61.4398 7.25408 62.4043 7.17886C63.3945 7.10163 64.6755 7.1 66.56 7.1Z" fill="#66D1FC"/>
</svg>

