<svg width="31" height="31" viewBox="0 0 31 31" fill="none" xmlns="http://www.w3.org/2000/svg">
<rect width="31" height="31" rx="3" fill="white"/>
<path d="M23.4618 17.9453C23.2141 17.6286 23.1586 17.3081 23.294 16.9833C23.6318 16.1168 28.5518 10.6133 26.5022 10.6133C25.0938 10.6309 23.4 10.6133 22.0498 10.6133C21.7991 10.6708 21.6369 10.7947 21.5354 11.0468C20.7458 12.7619 19.7796 14.8549 18.3636 16.2001C18.1773 16.3416 18.0611 16.3355 17.8489 16.2832C16.8556 15.2981 17.9147 11.923 17.3107 10.5894C17.1916 10.3283 16.931 10.2104 16.6644 10.144C15.3159 9.84128 12.2359 10.0215 11.7334 10.6309C11.5898 10.8052 11.5697 10.9002 11.6734 10.9159C12.1522 10.987 12.4912 11.1573 12.6907 11.4264C13.067 12.2071 13.3444 16.3661 12.2359 16.3661C11.1275 16.3661 9.34006 12.2845 8.84902 11.1531C8.71835 10.8124 8.3857 10.6171 8.0352 10.5594L4.75589 10.583C4.17947 10.583 3.85731 10.8509 4.06162 11.3905C5.76963 15.3845 9.50732 23.1261 15.24 22.9323C15.8143 22.9323 16.8022 23.14 17.2508 22.671C17.8671 21.9007 17.1154 20.5288 18.1723 20.0056C18.4388 19.8719 18.7151 19.9839 18.9441 20.1482C20.1197 20.9915 20.7439 22.4716 22.1937 22.9209C22.4486 23 22.6719 23.0198 22.8637 22.9802L25.9275 22.9328C26.4963 22.9328 27.0566 22.6944 26.9389 22.0538C26.4922 20.68 24.7124 19.2679 23.4618 17.9453Z" fill="#66D1FC"/>
</svg>



