<svg width="25" height="25" viewBox="0 0 25 25" fill="none" xmlns="http://www.w3.org/2000/svg">
<rect width="25" height="25" rx="2.52438" fill="white"/>
<path d="M18.8964 14.2516C18.6974 13.9868 18.6528 13.7188 18.7616 13.4473C19.033 12.7228 22.9857 8.12119 21.3391 8.12119C20.2075 8.13594 18.8468 8.12119 17.762 8.12119C17.5606 8.16925 17.4303 8.27287 17.3487 8.48368C16.7144 9.9177 15.9381 11.6677 14.8005 12.7924C14.6508 12.9107 14.5575 12.9057 14.387 12.8619C13.589 12.0382 14.4399 9.21626 13.9546 8.1012C13.8589 7.88293 13.6496 7.78435 13.4354 7.72884C12.3519 7.47569 9.87752 7.62637 9.47378 8.13594C9.35837 8.28161 9.34227 8.3611 9.42559 8.37418C9.81026 8.43367 10.0826 8.576 10.2429 8.80103C10.5452 9.45384 10.7681 12.9312 9.87752 12.9312C8.98698 12.9312 7.55096 9.51855 7.15646 8.57249C7.05148 8.28764 6.78423 8.12433 6.50263 8.07613L3.86803 8.09588C3.40493 8.09588 3.14611 8.31984 3.31025 8.77105C4.68246 12.1105 7.68534 18.5834 12.291 18.4213C12.7524 18.4213 13.5461 18.595 13.9064 18.2029C14.4016 17.5588 13.7977 16.4117 14.6468 15.9742C14.8609 15.8625 15.0829 15.9562 15.2669 16.0935C16.2114 16.7986 16.7128 18.0361 17.8776 18.4118C18.0824 18.478 18.2618 18.4945 18.4159 18.4614L20.8773 18.4218C21.3343 18.4218 21.7845 18.2225 21.6899 17.6868C21.3311 16.5382 19.9011 15.3575 18.8964 14.2516Z" fill="#66D1FC"/>
</svg>

