<svg width="36" height="36" viewBox="0 0 36 36" fill="none" xmlns="http://www.w3.org/2000/svg">
<path d="M20.2238 2.08982L20.2161 2.08879C11.6868 0.953494 3.81367 7.07026 2.66142 15.727C2.20438 19.1607 2.87135 22.4884 4.38177 25.3193L1.67774 30.894L7.88046 29.7567C10.1077 31.7265 12.8992 33.0645 16.0452 33.4833C24.5746 34.6186 32.4479 28.4999 33.5999 19.8451C34.7519 11.1903 28.7532 3.22512 20.2238 2.08982Z" fill="#5ACF5E"/>
<path d="M26.7029 23.8875C26.1967 24.7853 24.5838 25.3711 23.3502 25.4407C22.5066 25.486 21.4151 25.4665 17.9728 23.6588C13.5695 21.3478 11.1419 16.7938 10.9455 16.4931C10.7589 16.1938 9.36802 14.0429 9.63392 12.0452C9.89983 10.0475 11.1772 9.22756 11.6955 8.87151C12.1211 8.57928 12.77 8.50627 13.3725 8.58646C13.5674 8.61241 13.7415 8.64443 13.8981 8.67236C14.3585 8.75135 14.5875 8.80664 14.8068 9.49285C15.0791 10.3526 15.7386 12.4735 15.8215 12.6935C15.9064 12.9137 15.9816 13.2071 15.7881 13.4559C15.6034 13.7146 15.457 13.8209 15.1932 14.0266C14.9294 14.2324 14.6848 14.384 14.4186 14.6071C14.1766 14.7998 13.9048 15.0045 14.1182 15.4491C14.3327 15.885 15.0804 17.3428 16.3002 18.5961C17.8743 20.2135 19.241 20.8453 19.7259 21.1011C20.0874 21.2909 20.5446 21.3181 20.857 21.094C21.2541 20.8051 21.7634 20.3062 22.2793 19.817C22.6467 19.4656 23.0509 19.4699 23.4498 19.6646C23.8577 19.8517 25.9773 21.1345 26.4129 21.3997C26.8482 21.6666 27.1404 21.8047 27.2297 21.9919C27.3171 22.1788 27.2094 22.988 26.7029 23.8875Z" fill="white"/>
</svg>