<svg width="31" height="21" viewBox="0 0 31 21" fill="none" xmlns="http://www.w3.org/2000/svg">
<path d="M0.270703 4.13816C0.413005 2.06045 2.17437 0.432144 4.36709 0.329118C7.54228 0.17993 12.0806 0 15.5 0C18.9194 0 23.4577 0.17993 26.6329 0.329118C28.8256 0.432144 30.587 2.06045 30.7293 4.13816C30.8656 6.12877 31 8.57814 31 10.5C31 12.4219 30.8656 14.8712 30.7293 16.8618C30.587 18.9396 28.8256 20.5679 26.6329 20.6709C23.4577 20.8201 18.9194 21 15.5 21C12.0806 21 7.54228 20.8201 4.36709 20.6709C2.17437 20.5679 0.413005 18.9396 0.270703 16.8618C0.134367 14.8712 0 12.4219 0 10.5C0 8.57814 0.134367 6.12877 0.270703 4.13816Z" fill="white"/>
<path d="M12 6V15L21 10.5L12 6Z" fill="#66D1FC"/>
</svg>
